M48
;Layer_Color=9474304
;FILE_FORMAT=4:4
METRIC,LZ
;TYPE=PLATED
T1F00S00C0.3500
T2F00S00C1.0200
;TYPE=NON_PLATED
%
T01
X00244Y-00167
X0025
X00256
X00262
X00268
Y-00042
X00262
X00256
X0025
X00244
X00227Y-00012
X00224Y-00007
X00218
X00212
X00206
X002
X00194
X00188
X00182
X00176
X0017
X00164
X00158
X00152
X00149Y-00012
Y-00002
X00155
X00161
X00167
X00173
X00179
X00185
X00191
X00197
X00203
X00209
X00215
X00221
X00227
X00224Y00003
X00244Y00041
X0025
X00256
X00262
X00268
Y00166
X00262
X00256
X0025
X00244
X00152Y00003
T02
X002973Y-001331
X003227
Y-001077
X002973
Y-000823
X003227
Y-000569
X002973
Y000769
X003227
Y001023
X002973
Y001277
X003227
Y001531
X002973
M30
