G04*
G04 #@! TF.GenerationSoftware,Altium Limited,Altium Designer,18.1.7 (191)*
G04*
G04 Layer_Color=65535*
%FSLAX44Y44*%
%MOMM*%
G71*
G01*
G75*
%ADD10C,0.1000*%
%ADD11C,0.2000*%
%ADD12C,0.2540*%
D10*
X322700Y60900D02*
G03*
X322700Y59900I0J-500D01*
G01*
D02*
G03*
X322700Y60900I0J500D01*
G01*
Y-149100D02*
G03*
X322700Y-150100I0J-500D01*
G01*
D02*
G03*
X322700Y-149100I0J500D01*
G01*
D11*
X285600Y66200D02*
Y70900D01*
Y66200D02*
X334400D01*
Y70900D01*
X285600Y158900D02*
Y163700D01*
X334400D01*
Y158900D02*
Y163700D01*
X285600Y82900D02*
Y94900D01*
X334700Y82900D02*
Y94900D01*
X285600Y108900D02*
Y120900D01*
X334400Y108900D02*
Y120900D01*
X285600Y134900D02*
Y146900D01*
X334400Y134900D02*
X334700Y146900D01*
X285600Y-143800D02*
Y-139100D01*
Y-143800D02*
X334400D01*
Y-139100D01*
X285600Y-51100D02*
Y-46300D01*
X334400D01*
Y-51100D02*
Y-46300D01*
X285600Y-127100D02*
Y-115100D01*
X334700Y-127100D02*
Y-115100D01*
X285600Y-101100D02*
Y-89100D01*
X334400Y-101100D02*
Y-89100D01*
X285600Y-75100D02*
Y-63100D01*
X334400Y-75100D02*
X334700Y-63100D01*
D12*
X-56151Y115248D02*
X-60317D01*
X-58234D01*
Y104835D01*
X-60317Y102752D01*
X-62399D01*
X-64482Y104835D01*
X-51986Y115248D02*
Y102752D01*
X-43655D01*
X-31159Y113165D02*
X-33242Y115248D01*
X-37407D01*
X-39490Y113165D01*
Y104835D01*
X-37407Y102752D01*
X-33242D01*
X-31159Y104835D01*
X-18663Y115248D02*
X-22829D01*
X-20746D01*
Y104835D01*
X-22829Y102752D01*
X-24911D01*
X-26994Y104835D01*
X-14498Y115248D02*
Y102752D01*
X-6167D01*
X6329Y113165D02*
X4246Y115248D01*
X81D01*
X-2002Y113165D01*
Y104835D01*
X81Y102752D01*
X4246D01*
X6329Y104835D01*
X18825Y115248D02*
X14659D01*
X16742D01*
Y104835D01*
X14659Y102752D01*
X12577D01*
X10494Y104835D01*
X22990Y115248D02*
Y102752D01*
X31321D01*
X43816Y113165D02*
X41734Y115248D01*
X37569D01*
X35486Y113165D01*
Y104835D01*
X37569Y102752D01*
X41734D01*
X43816Y104835D01*
X56312Y115248D02*
X52147D01*
X54230D01*
Y104835D01*
X52147Y102752D01*
X50065D01*
X47982Y104835D01*
X60478Y115248D02*
Y102752D01*
X68808D01*
X81304Y113165D02*
X79222Y115248D01*
X75056D01*
X72974Y113165D01*
Y104835D01*
X75056Y102752D01*
X79222D01*
X81304Y104835D01*
M02*
