G04*
G04 #@! TF.GenerationSoftware,Altium Limited,Altium Designer,18.1.7 (191)*
G04*
G04 Layer_Physical_Order=1*
G04 Layer_Color=255*
%FSLAX44Y44*%
%MOMM*%
G71*
G01*
G75*
%ADD16C,0.2700*%
%ADD17C,1.5240*%
%ADD18R,2.2900X0.7600*%
%ADD19C,0.5000*%
G36*
X335000Y-166000D02*
X258000Y-166000D01*
X258000Y-128308D01*
X286000Y-106615D01*
X286000Y-42000D01*
X335000Y-42000D01*
Y-166000D01*
D02*
G37*
G36*
X152000Y-33102D02*
X151102Y-34000D01*
X146293Y-34000D01*
X145049Y-33750D01*
Y33750D01*
Y34612D01*
X146267Y35000D01*
X152000D01*
X152000Y-33102D01*
D02*
G37*
G36*
X335000Y57000D02*
X286000D01*
Y117278D01*
X258000Y137500D01*
Y164000D01*
X335000D01*
Y57000D01*
D02*
G37*
D16*
X137500Y-51950D02*
G03*
X154850Y-34600I0J17350D01*
G01*
X-154850Y-38500D02*
G03*
X-137500Y-55850I17350J0D01*
G01*
X137500Y-75350D02*
G03*
X178250Y-34600I0J40750D01*
G01*
X-178250Y-38500D02*
G03*
X-137500Y-79250I40750J0D01*
G01*
X137500D02*
G03*
X182150Y-34600I0J44650D01*
G01*
X137500Y-83150D02*
G03*
X186050Y-34600I0J48550D01*
G01*
X-186050Y-38500D02*
G03*
X-137500Y-87050I48550J0D01*
G01*
X137500D02*
G03*
X189950Y-34600I0J52450D01*
G01*
X137500Y-90950D02*
G03*
X193850Y-34600I0J56350D01*
G01*
X-193850Y-38500D02*
G03*
X-137500Y-94850I56350J0D01*
G01*
X137500D02*
G03*
X197750Y-34600I0J60250D01*
G01*
X137500Y-98750D02*
G03*
X201650Y-34600I0J64150D01*
G01*
X-201650Y-38500D02*
G03*
X-137500Y-102650I64150J0D01*
G01*
X137500D02*
G03*
X205550Y-34600I0J68050D01*
G01*
X137500Y-106550D02*
G03*
X209450Y-34600I0J71950D01*
G01*
X-209450Y-38500D02*
G03*
X-137500Y-110450I71950J0D01*
G01*
X137500D02*
G03*
X213350Y-34600I0J75850D01*
G01*
X137500Y-114350D02*
G03*
X217250Y-34600I0J79750D01*
G01*
X-217250Y-38500D02*
G03*
X-137500Y-118250I79750J0D01*
G01*
X137500D02*
G03*
X221150Y-34600I0J83650D01*
G01*
X137500Y-122150D02*
G03*
X225050Y-34600I0J87550D01*
G01*
X-225050Y-38500D02*
G03*
X-137500Y-126050I87550J0D01*
G01*
X137500D02*
G03*
X228950Y-34600I0J91450D01*
G01*
X137500Y-129950D02*
G03*
X232850Y-34600I0J95350D01*
G01*
X-232850Y-38500D02*
G03*
X-137500Y-133850I95350J0D01*
G01*
X137500D02*
G03*
X236749Y-34600I0J99250D01*
G01*
X-236749Y-38500D02*
G03*
X-137500Y-137750I99250J0D01*
G01*
X137500D02*
G03*
X240650Y-34600I0J103150D01*
G01*
X-240650Y-38500D02*
G03*
X-137500Y-141650I103150J0D01*
G01*
X137500D02*
G03*
X244550Y-34600I0J107050D01*
G01*
X-244550Y-38500D02*
G03*
X-137500Y-145550I107050J0D01*
G01*
X137500D02*
G03*
X248449Y-34600I0J110950D01*
G01*
X-248449Y-38500D02*
G03*
X-137500Y-149450I110950J0D01*
G01*
X137500D02*
G03*
X252349Y-34600I0J114850D01*
G01*
X-252349Y-38500D02*
G03*
X-137500Y-153350I114850J0D01*
G01*
X137500D02*
G03*
X256250Y-34600I0J118750D01*
G01*
X-256250Y-38500D02*
G03*
X-137500Y-157250I118750J0D01*
G01*
X137500D02*
G03*
X260149Y-34600I0J122650D01*
G01*
X-260149Y-38500D02*
G03*
X-137500Y-161150I122650J0D01*
G01*
X-228950Y-38500D02*
G03*
X-137500Y-129950I91450J0D01*
G01*
X-213350Y-38500D02*
G03*
X-137500Y-114350I75850J0D01*
G01*
X-221150Y-38500D02*
G03*
X-137500Y-122150I83650J0D01*
G01*
X-197750Y-38500D02*
G03*
X-137500Y-98750I60250J0D01*
G01*
X-205550Y-38500D02*
G03*
X-137500Y-106550I68050J0D01*
G01*
X-189950Y-38500D02*
G03*
X-137500Y-90950I52450J0D01*
G01*
X-162650Y-38500D02*
G03*
X-137500Y-63650I25150J0D01*
G01*
X-158750Y-38500D02*
G03*
X-137500Y-59750I21250J0D01*
G01*
X-150950Y-38500D02*
G03*
X-137500Y-51950I13450J0D01*
G01*
X-182150Y-38500D02*
G03*
X-137500Y-83150I44650J0D01*
G01*
X-174350Y-38500D02*
G03*
X-137500Y-75350I36850J0D01*
G01*
X-170450Y-38500D02*
G03*
X-137500Y-71450I32950J0D01*
G01*
X-166550Y-38500D02*
G03*
X-137500Y-67550I29050J0D01*
G01*
Y51950D02*
G03*
X-150950Y38500I0J-13450D01*
G01*
X-137500Y63650D02*
G03*
X-162650Y38500I0J-25150D01*
G01*
X-137500Y55850D02*
G03*
X-154850Y38500I0J-17350D01*
G01*
X-137500Y59750D02*
G03*
X-158750Y38500I0J-21250D01*
G01*
X-137500Y133850D02*
G03*
X-232850Y38500I0J-95350D01*
G01*
X-137500Y129950D02*
G03*
X-228950Y38500I0J-91450D01*
G01*
X-137500Y153350D02*
G03*
X-252349Y38500I0J-114850D01*
G01*
X-137500Y137750D02*
G03*
X-236749Y38500I0J-99250D01*
G01*
X-137500Y145550D02*
G03*
X-244550Y38500I0J-107050D01*
G01*
X-137500Y141650D02*
G03*
X-240650Y38500I0J-103150D01*
G01*
X-137500Y161150D02*
G03*
X-260149Y38500I0J-122650D01*
G01*
X-137500Y149450D02*
G03*
X-248449Y38500I0J-110950D01*
G01*
X-137500Y157250D02*
G03*
X-256250Y38500I0J-118750D01*
G01*
X-137500Y126050D02*
G03*
X-225050Y38500I0J-87550D01*
G01*
X-137500Y94850D02*
G03*
X-193850Y38500I0J-56350D01*
G01*
X-137500Y75350D02*
G03*
X-174350Y38500I0J-36850D01*
G01*
X-137500Y118250D02*
G03*
X-217250Y38500I0J-79750D01*
G01*
X-137500Y114350D02*
G03*
X-213350Y38500I0J-75850D01*
G01*
X-137500Y102650D02*
G03*
X-201650Y38500I0J-64150D01*
G01*
X-137500Y98750D02*
G03*
X-197750Y38500I0J-60250D01*
G01*
X-137500Y122150D02*
G03*
X-221150Y38500I0J-83650D01*
G01*
X-137500Y106550D02*
G03*
X-205550Y38500I0J-68050D01*
G01*
X-137500Y110450D02*
G03*
X-209450Y38500I0J-71950D01*
G01*
X-137500Y71450D02*
G03*
X-170450Y38500I0J-32950D01*
G01*
X-137500Y67550D02*
G03*
X-166550Y38500I0J-29050D01*
G01*
X-137500Y87050D02*
G03*
X-186050Y38500I0J-48550D01*
G01*
X-137500Y79250D02*
G03*
X-178250Y38500I0J-40750D01*
G01*
X-137500Y90950D02*
G03*
X-189950Y38500I0J-52450D01*
G01*
X-137500Y83150D02*
G03*
X-182150Y38500I0J-44650D01*
G01*
X137500Y-59750D02*
G03*
X162650Y-34600I0J25150D01*
G01*
X137500Y-55850D02*
G03*
X158750Y-34600I0J21250D01*
G01*
X137500Y-63650D02*
G03*
X166550Y-34600I0J29050D01*
G01*
X137500Y-71450D02*
G03*
X174350Y-34600I0J36850D01*
G01*
X137500Y-67550D02*
G03*
X170450Y-34600I0J32950D01*
G01*
X150950Y38500D02*
G03*
X137500Y51950I-13450J0D01*
G01*
X162650Y38500D02*
G03*
X137500Y63650I-25150J0D01*
G01*
X154850Y38500D02*
G03*
X137500Y55850I-17350J0D01*
G01*
X170450Y38500D02*
G03*
X137500Y71450I-32950J0D01*
G01*
X166550Y38500D02*
G03*
X137500Y67550I-29050J0D01*
G01*
X178250Y38500D02*
G03*
X137500Y79250I-40750J0D01*
G01*
X174350Y38500D02*
G03*
X137500Y75350I-36850J0D01*
G01*
X205550Y38500D02*
G03*
X137500Y106550I-68050J0D01*
G01*
X186050Y38500D02*
G03*
X137500Y87050I-48550J0D01*
G01*
X189950Y38500D02*
G03*
X137500Y90950I-52450J0D01*
G01*
X193850Y38500D02*
G03*
X137500Y94850I-56350J0D01*
G01*
X182150Y38500D02*
G03*
X137500Y83150I-44650J0D01*
G01*
X209450Y38500D02*
G03*
X137500Y110450I-71950J0D01*
G01*
X197750Y38500D02*
G03*
X137500Y98750I-60250J0D01*
G01*
X201650Y38500D02*
G03*
X137500Y102650I-64150J0D01*
G01*
X158750Y38500D02*
G03*
X137500Y59750I-21250J0D01*
G01*
X213350Y38500D02*
G03*
X137500Y114350I-75850J0D01*
G01*
X256250Y38500D02*
G03*
X137500Y157250I-118750J0D01*
G01*
X252349Y38500D02*
G03*
X137500Y153350I-114850J0D01*
G01*
X221150Y38500D02*
G03*
X137500Y122150I-83650J0D01*
G01*
X217250Y38500D02*
G03*
X137500Y118250I-79750J0D01*
G01*
X228950Y38500D02*
G03*
X137500Y129950I-91450J0D01*
G01*
X225050Y38500D02*
G03*
X137500Y126050I-87550J0D01*
G01*
X236749Y38500D02*
G03*
X137500Y137750I-99250J0D01*
G01*
X232850Y38500D02*
G03*
X137500Y133850I-95350J0D01*
G01*
X248449Y38500D02*
G03*
X137500Y149450I-110950J0D01*
G01*
X240650Y38500D02*
G03*
X137500Y141650I-103150J0D01*
G01*
X244550Y38500D02*
G03*
X137500Y145550I-107050J0D01*
G01*
X260149Y38500D02*
G03*
X137500Y161150I-122650J0D01*
G01*
X-154850Y-38500D02*
Y38500D01*
X-178250Y-38500D02*
Y38500D01*
X-137500Y-79250D02*
X137500D01*
X-137500Y-83150D02*
X137500D01*
X-186050Y-38500D02*
Y38500D01*
X-137500Y-87050D02*
X137500D01*
X-137500Y-90950D02*
X137500D01*
X-193850Y-38500D02*
Y38500D01*
X-137500Y-94850D02*
X137500D01*
X-137500Y-98750D02*
X137500D01*
X-201650Y-38500D02*
Y38500D01*
X-137500Y-102650D02*
X137500D01*
X-137500Y-106550D02*
X137500D01*
X-209450Y-38500D02*
Y38500D01*
X-137500Y-110450D02*
X137500D01*
X-137500Y-114350D02*
X137500D01*
X-217250Y-38500D02*
Y38500D01*
X-137500Y-118250D02*
X137500D01*
X-137500Y-122150D02*
X137500D01*
X-225049Y-38500D02*
Y38500D01*
X-137500Y-126050D02*
X137500D01*
X-137500Y-129950D02*
X137500D01*
X-232850Y-38500D02*
Y38500D01*
X-137500Y-133850D02*
X137500D01*
X-236749Y-38500D02*
Y38500D01*
X-137500Y-137750D02*
X137500D01*
X-240650Y-38500D02*
Y38500D01*
X-137500Y-141650D02*
X137500D01*
X-244550Y-38500D02*
Y38500D01*
X-137500Y-145550D02*
X137500D01*
X-248449Y-38500D02*
Y38500D01*
X-137500Y-149450D02*
X137500D01*
X-252349Y-38500D02*
Y38500D01*
X-137500Y-153350D02*
X137500D01*
X-256250Y-38500D02*
Y38500D01*
X-137500Y-157250D02*
X137500D01*
X-260149Y-38500D02*
Y38500D01*
X-221150Y-38500D02*
Y38500D01*
X-228950Y-38500D02*
Y38500D01*
X-205550Y-38500D02*
Y38500D01*
X-213350Y-38500D02*
Y38500D01*
X-197750Y-38500D02*
Y38500D01*
X-189950Y-38500D02*
Y38500D01*
X-174350Y-38500D02*
Y38500D01*
X-170450Y-38500D02*
Y38500D01*
X-182150Y-38500D02*
Y38500D01*
X-150950Y-38500D02*
Y38500D01*
X-166550Y-38500D02*
Y38500D01*
X-158750Y-38500D02*
Y38500D01*
X-162650Y-38500D02*
Y38500D01*
X-137500Y-75350D02*
X137500D01*
X-137500Y-67550D02*
X137500D01*
X-137500Y-71450D02*
X137500D01*
X-137500Y-59750D02*
X137500D01*
X-137500Y-63650D02*
X137500D01*
X-137500Y-51950D02*
X137500D01*
X-137500Y-55850D02*
X137500D01*
X-137500Y51950D02*
X137500D01*
X-137500Y59750D02*
X137500D01*
X-137500Y55850D02*
X137500D01*
X-137500Y71450D02*
X137500D01*
X-137500Y63650D02*
X137500D01*
X-137500Y67550D02*
X137500D01*
X-137500Y79250D02*
X137500D01*
X-137500Y75350D02*
X137500D01*
X-137500Y87050D02*
X137500D01*
X-137500Y83150D02*
X137500D01*
X-137500Y94850D02*
X137500D01*
X-137500Y90950D02*
X137500D01*
X-137500Y98750D02*
X137500D01*
X-137500Y106550D02*
X137500D01*
X-137500Y102650D02*
X137500D01*
X-137500Y110450D02*
X137500D01*
X-137500Y141650D02*
X137500D01*
X-137500Y133850D02*
X137500D01*
X-137500Y157250D02*
X137500D01*
X-137500Y145550D02*
X137500D01*
X-137500Y118250D02*
X137500D01*
X-137500Y114350D02*
X137500D01*
X-137500Y129950D02*
X137500D01*
X-137500Y122150D02*
X137500D01*
X-137500Y126050D02*
X137500D01*
X-137500Y137750D02*
X137500D01*
X-137500Y149450D02*
X137500D01*
X-137500Y153350D02*
X137500D01*
X158750Y-34600D02*
Y38500D01*
X150950Y0D02*
Y38500D01*
X154850Y-34600D02*
Y38500D01*
X162650Y-34600D02*
Y38500D01*
X205550Y-34600D02*
Y38500D01*
X228950Y-34600D02*
Y38500D01*
X236749Y-34600D02*
Y38500D01*
X240650Y-34600D02*
Y38500D01*
X244550Y-34600D02*
Y38500D01*
X248449Y-34600D02*
Y38500D01*
X252349Y-34600D02*
Y38500D01*
X260149Y-34600D02*
Y38500D01*
X256250Y-34600D02*
Y38500D01*
X174350Y-34600D02*
Y38500D01*
X178250Y-34600D02*
Y38500D01*
X166550Y-34600D02*
Y38500D01*
X170450Y-34600D02*
Y38500D01*
X182150Y-34600D02*
Y38500D01*
X186050Y-34600D02*
Y38500D01*
X189950Y-34600D02*
Y38500D01*
X209450Y-34600D02*
Y38500D01*
X213350Y-34600D02*
Y38500D01*
X193850Y-34600D02*
Y38500D01*
X201650Y-34600D02*
Y38500D01*
X197750Y-34600D02*
Y38500D01*
X217250Y-34600D02*
Y38500D01*
X221150Y-34600D02*
Y38500D01*
X225050Y-34600D02*
Y38500D01*
X232850Y-34600D02*
Y38500D01*
X-137500Y-161150D02*
X266600D01*
X289650Y-138100D01*
X297300D01*
X-137500Y161150D02*
X137500D01*
D17*
X-132000Y0D02*
D03*
X0D02*
D03*
X131500Y-0D02*
D03*
X0Y-33000D02*
D03*
Y-18000D02*
D03*
Y18000D02*
D03*
Y33000D02*
D03*
X133000Y0D02*
D03*
D18*
X297300Y153100D02*
D03*
X322700D02*
D03*
X297300Y127700D02*
D03*
X322700D02*
D03*
X297300Y102300D02*
D03*
X322700D02*
D03*
X297300Y76900D02*
D03*
X322700D02*
D03*
X297300Y-61900D02*
D03*
X322700D02*
D03*
X297300Y-87300D02*
D03*
X322700D02*
D03*
X297300Y-112700D02*
D03*
X322700D02*
D03*
X297300Y-138100D02*
D03*
X322700D02*
D03*
D19*
X148000Y-22000D02*
D03*
Y-29000D02*
D03*
Y32000D02*
D03*
Y26000D02*
D03*
Y20000D02*
D03*
Y14000D02*
D03*
Y8000D02*
D03*
Y2000D02*
D03*
Y-16000D02*
D03*
Y-10000D02*
D03*
Y-4000D02*
D03*
M02*
