G04*
G04 #@! TF.GenerationSoftware,Altium Limited,Altium Designer,18.1.7 (191)*
G04*
G04 Layer_Physical_Order=4*
G04 Layer_Color=16711680*
%FSLAX44Y44*%
%MOMM*%
G71*
G01*
G75*
%ADD16C,0.2700*%
%ADD17C,1.5240*%
%ADD18R,2.2900X0.7600*%
%ADD19C,0.5000*%
%ADD20C,0.4000*%
G36*
X335000Y-166000D02*
X258000Y-166000D01*
X258000Y-128222D01*
X286000Y-106445D01*
X286000Y-42000D01*
X335000Y-42000D01*
Y-166000D01*
D02*
G37*
G36*
X152000Y-33102D02*
X151102Y-34000D01*
X146293Y-34000D01*
X145049Y-33750D01*
Y33750D01*
Y34612D01*
X146267Y35000D01*
X152000D01*
X152000Y-33102D01*
D02*
G37*
G36*
X335000Y57000D02*
X286000D01*
Y116722D01*
X258000Y136944D01*
X258000Y164000D01*
X335000Y164000D01*
Y57000D01*
D02*
G37*
D16*
X-137349Y56850D02*
G03*
X-154699Y39500I0J-17350D01*
G01*
X-137349Y138750D02*
G03*
X-236599Y39500I0J-99250D01*
G01*
X-137349Y154350D02*
G03*
X-252199Y39500I0J-114850D01*
G01*
X-137349Y119250D02*
G03*
X-217099Y39500I0J-79750D01*
G01*
X-137349Y103650D02*
G03*
X-201499Y39500I0J-64150D01*
G01*
X-137349Y88050D02*
G03*
X-185899Y39500I0J-48550D01*
G01*
X-137349Y134850D02*
G03*
X-232699Y39500I0J-95350D01*
G01*
X-137349Y150450D02*
G03*
X-248299Y39500I0J-110950D01*
G01*
X-137349Y80250D02*
G03*
X-178099Y39500I0J-40750D01*
G01*
X-137349Y146550D02*
G03*
X-244399Y39500I0J-107050D01*
G01*
X-137349Y127050D02*
G03*
X-224899Y39500I0J-87550D01*
G01*
X-137349Y162150D02*
G03*
X-259999Y39500I0J-122650D01*
G01*
X-137349Y111450D02*
G03*
X-209299Y39500I0J-71950D01*
G01*
X-137349Y95850D02*
G03*
X-193699Y39500I0J-56350D01*
G01*
X-137349Y142650D02*
G03*
X-240499Y39500I0J-103150D01*
G01*
X-137349Y158250D02*
G03*
X-256099Y39500I0J-118750D01*
G01*
Y-37500D02*
G03*
X-137349Y-156250I118750J0D01*
G01*
X-244399Y-37500D02*
G03*
X-137349Y-144550I107050J0D01*
G01*
X-228799Y-37500D02*
G03*
X-137349Y-128950I91450J0D01*
G01*
X-217099Y-37500D02*
G03*
X-137349Y-117250I79750J0D01*
G01*
X-213199Y-37500D02*
G03*
X-137349Y-113350I75850J0D01*
G01*
X-209299Y-37500D02*
G03*
X-137349Y-109450I71950J0D01*
G01*
X-232699Y-37500D02*
G03*
X-137349Y-132850I95350J0D01*
G01*
X-224899Y-37500D02*
G03*
X-137349Y-125050I87550J0D01*
G01*
X-220999Y-37500D02*
G03*
X-137349Y-121150I83650J0D01*
G01*
X-259999Y-37500D02*
G03*
X-137349Y-160150I122650J0D01*
G01*
X-252199Y-37500D02*
G03*
X-137349Y-152350I114850J0D01*
G01*
X-248299Y-37500D02*
G03*
X-137349Y-148450I110950J0D01*
G01*
X-240499Y-37500D02*
G03*
X-137349Y-140650I103150J0D01*
G01*
X-236599Y-37500D02*
G03*
X-137349Y-136750I99250J0D01*
G01*
X-205399Y-37500D02*
G03*
X-137349Y-105550I68050J0D01*
G01*
X-201499Y-37500D02*
G03*
X-137349Y-101650I64150J0D01*
G01*
X-197599Y-37500D02*
G03*
X-137349Y-97750I60250J0D01*
G01*
X-193699Y-37500D02*
G03*
X-137349Y-93850I56350J0D01*
G01*
X-189799Y-37500D02*
G03*
X-137349Y-89950I52450J0D01*
G01*
X-185899Y-37500D02*
G03*
X-137349Y-86050I48550J0D01*
G01*
X-181999Y-37500D02*
G03*
X-137349Y-82150I44650J0D01*
G01*
X-178099Y-37500D02*
G03*
X-137349Y-78250I40750J0D01*
G01*
X-174199Y-37500D02*
G03*
X-137349Y-74350I36850J0D01*
G01*
X-162499Y-37500D02*
G03*
X-137349Y-62650I25150J0D01*
G01*
X-170299Y-37500D02*
G03*
X-137349Y-70450I32950J0D01*
G01*
X-166399Y-37500D02*
G03*
X-137349Y-66550I29050J0D01*
G01*
X-158599Y-37500D02*
G03*
X-137349Y-58750I21250J0D01*
G01*
X-154699Y-37500D02*
G03*
X-137349Y-54850I17350J0D01*
G01*
X-150799Y-37500D02*
G03*
X-137349Y-50950I13450J0D01*
G01*
Y130950D02*
G03*
X-228799Y39500I0J-91450D01*
G01*
X-137349Y123150D02*
G03*
X-220999Y39500I0J-83650D01*
G01*
X-137349Y84150D02*
G03*
X-181999Y39500I0J-44650D01*
G01*
X-137349Y91950D02*
G03*
X-189799Y39500I0J-52450D01*
G01*
X-137349Y68550D02*
G03*
X-166399Y39500I0J-29050D01*
G01*
X-137349Y64650D02*
G03*
X-162499Y39500I0J-25150D01*
G01*
X-137349Y72450D02*
G03*
X-170299Y39500I0J-32950D01*
G01*
X-137349Y76350D02*
G03*
X-174199Y39500I0J-36850D01*
G01*
X-137349Y52950D02*
G03*
X-150799Y39500I0J-13450D01*
G01*
X-137349Y60750D02*
G03*
X-158599Y39500I0J-21250D01*
G01*
X-137349Y99750D02*
G03*
X-197599Y39500I0J-60250D01*
G01*
X-137349Y107550D02*
G03*
X-205399Y39500I0J-68050D01*
G01*
X-137349Y115350D02*
G03*
X-213199Y39500I0J-75850D01*
G01*
X137650Y-93850D02*
G03*
X194000Y-37500I0J56350D01*
G01*
X137650Y-62650D02*
G03*
X162800Y-37500I0J25150D01*
G01*
X137650Y-78250D02*
G03*
X178400Y-37500I0J40750D01*
G01*
X137650Y-82150D02*
G03*
X182300Y-37500I0J44650D01*
G01*
X137650Y-70450D02*
G03*
X170600Y-37500I0J32950D01*
G01*
X137650Y-74350D02*
G03*
X174500Y-37500I0J36850D01*
G01*
X137650Y-101650D02*
G03*
X201800Y-37500I0J64150D01*
G01*
X137650Y-105550D02*
G03*
X205700Y-37500I0J68050D01*
G01*
X137650Y-86050D02*
G03*
X186200Y-37500I0J48550D01*
G01*
X137650Y-97750D02*
G03*
X197900Y-37500I0J60250D01*
G01*
X137650Y-89950D02*
G03*
X190100Y-37500I0J52450D01*
G01*
X137650Y-58750D02*
G03*
X158900Y-37500I0J21250D01*
G01*
X137650Y-66550D02*
G03*
X166700Y-37500I0J29050D01*
G01*
X137650Y-54850D02*
G03*
X155000Y-37500I0J17350D01*
G01*
X137650Y-50950D02*
G03*
X151100Y-37500I0J13450D01*
G01*
X137650Y-144550D02*
G03*
X244700Y-37500I0J107050D01*
G01*
X137650Y-140650D02*
G03*
X240800Y-37500I0J103150D01*
G01*
X137650Y-136750D02*
G03*
X236900Y-37500I0J99250D01*
G01*
X137650Y-128950D02*
G03*
X229100Y-37500I0J91450D01*
G01*
X137650Y-132850D02*
G03*
X233000Y-37500I0J95350D01*
G01*
X137650Y-148450D02*
G03*
X248600Y-37500I0J110950D01*
G01*
X137650Y-121150D02*
G03*
X221300Y-37500I0J83650D01*
G01*
X137650Y-125050D02*
G03*
X225200Y-37500I0J87550D01*
G01*
X137650Y-152350D02*
G03*
X252500Y-37500I0J114850D01*
G01*
X137650Y-156250D02*
G03*
X256400Y-37500I0J118750D01*
G01*
X137650Y-117250D02*
G03*
X217400Y-37500I0J79750D01*
G01*
X137650Y-109450D02*
G03*
X209600Y-37500I0J71950D01*
G01*
X137650Y-113350D02*
G03*
X213500Y-37500I0J75850D01*
G01*
X182300Y35600D02*
G03*
X137650Y80250I-44650J0D01*
G01*
X178400Y35600D02*
G03*
X137650Y76350I-40750J0D01*
G01*
X190100Y35600D02*
G03*
X137650Y88050I-52450J0D01*
G01*
X186200Y35600D02*
G03*
X137650Y84150I-48550J0D01*
G01*
X197900Y35600D02*
G03*
X137650Y95850I-60250J0D01*
G01*
X194000Y35600D02*
G03*
X137650Y91950I-56350J0D01*
G01*
X213500Y35600D02*
G03*
X137650Y111450I-75850J0D01*
G01*
X205700Y35600D02*
G03*
X137650Y103650I-68050J0D01*
G01*
X209600Y35600D02*
G03*
X137650Y107550I-71950J0D01*
G01*
X158900Y35600D02*
G03*
X137650Y56850I-21250J0D01*
G01*
X155000Y35600D02*
G03*
X137650Y52950I-17350J0D01*
G01*
X162800Y35600D02*
G03*
X137650Y60750I-25150J0D01*
G01*
X170600Y35600D02*
G03*
X137650Y68550I-32950J0D01*
G01*
X166700Y35600D02*
G03*
X137650Y64650I-29050J0D01*
G01*
X174500Y35600D02*
G03*
X137650Y72450I-36850J0D01*
G01*
X201800Y35600D02*
G03*
X137650Y99750I-64150J0D01*
G01*
X221300Y35600D02*
G03*
X137650Y119250I-83650J0D01*
G01*
X217400Y35600D02*
G03*
X137650Y115350I-79750J0D01*
G01*
X233000Y35600D02*
G03*
X137650Y130950I-95350J0D01*
G01*
X229100Y35600D02*
G03*
X137650Y127050I-91450J0D01*
G01*
X260300Y35600D02*
G03*
X137650Y158250I-122650J0D01*
G01*
X236900Y35600D02*
G03*
X137650Y134850I-99250J0D01*
G01*
X225200Y35600D02*
G03*
X137650Y123150I-87550J0D01*
G01*
X244700Y35600D02*
G03*
X137650Y142650I-107050J0D01*
G01*
X240800Y35600D02*
G03*
X137650Y138750I-103150J0D01*
G01*
X256400Y35600D02*
G03*
X137650Y154350I-118750J0D01*
G01*
X248600Y35600D02*
G03*
X137650Y146550I-110950J0D01*
G01*
X252500Y35600D02*
G03*
X137650Y150450I-114850J0D01*
G01*
Y-160150D02*
G03*
X260300Y-37500I0J122650D01*
G01*
X-137349Y115350D02*
X137650D01*
X-137349Y111450D02*
X137650D01*
X-201499Y-37500D02*
Y39500D01*
X-137349Y107550D02*
X137650D01*
X-137349Y103650D02*
X137650D01*
X-193699Y-37500D02*
Y39500D01*
X-185899Y-37500D02*
Y39500D01*
X-252199Y-37500D02*
Y39500D01*
X-256099Y-37500D02*
Y39500D01*
X-259999Y-37500D02*
Y39500D01*
X-137349Y99750D02*
X137650D01*
X-137349Y95850D02*
X137650D01*
X-137349Y91950D02*
X137650D01*
X-137349Y88050D02*
X137650D01*
X-178099Y-37500D02*
Y39500D01*
X-244399Y-37500D02*
Y39500D01*
X-248299Y-37500D02*
Y39500D01*
X-137349Y158250D02*
X137650D01*
X-137349Y84150D02*
X137650D01*
X-137349Y80250D02*
X137650D01*
X-240499Y-37500D02*
Y39500D01*
X-236599Y-37500D02*
Y39500D01*
X-137349Y150450D02*
X137650D01*
X-137349Y154350D02*
X137650D01*
X-154699Y-37500D02*
Y39500D01*
X-137349Y142650D02*
X137650D01*
X-137349Y146550D02*
X137650D01*
X-232699Y-37500D02*
Y39500D01*
X-224899Y-37500D02*
Y39500D01*
X-137349Y138750D02*
X137650D01*
X-137349Y134850D02*
X137650D01*
X-137349Y127050D02*
X137650D01*
X-217099Y-37500D02*
Y39500D01*
X-137349Y130950D02*
X137650D01*
X-137349Y123150D02*
X137650D01*
X-137349Y119250D02*
X137650D01*
X-209299Y-37500D02*
Y39500D01*
X-137349Y-136750D02*
X137650D01*
X-137349Y-140650D02*
X137650D01*
X-137349Y-128950D02*
X137650D01*
X-137349Y-132850D02*
X137650D01*
X-137349Y-156250D02*
X137650D01*
X-137349Y-144550D02*
X137650D01*
X-137349Y-152350D02*
X137650D01*
X-137349Y-148450D02*
X137650D01*
X-137349Y-101650D02*
X137650D01*
X-137349Y-105550D02*
X137650D01*
X-137349Y-93850D02*
X137650D01*
X-137349Y-97750D02*
X137650D01*
X-137349Y-121150D02*
X137650D01*
X-137349Y-125050D02*
X137650D01*
X-137349Y-109450D02*
X137650D01*
X-137349Y-117250D02*
X137650D01*
X-137349Y-113350D02*
X137650D01*
X-137349Y-74350D02*
X137650D01*
X-137349Y-86050D02*
X137650D01*
X-137349Y-89950D02*
X137650D01*
X-137349Y-70450D02*
X137650D01*
X-137349Y-82150D02*
X137650D01*
X-137349Y-78250D02*
X137650D01*
X-137349Y-62650D02*
X137650D01*
X-137349Y-66550D02*
X137650D01*
X-137349Y-50950D02*
X137650D01*
X-137349Y-58750D02*
X137650D01*
X-137349Y-54850D02*
X137650D01*
X-228799Y-37500D02*
Y39500D01*
X-205399Y-37500D02*
Y39500D01*
X-220999Y-37500D02*
Y39500D01*
X-213199Y-37500D02*
Y39500D01*
X-189799Y-37500D02*
Y39500D01*
X-197599Y-37500D02*
Y39500D01*
X-174199Y-37500D02*
Y39500D01*
X-170299Y-37500D02*
Y39500D01*
X-181999Y-37500D02*
Y39500D01*
X-158599Y-37500D02*
Y39500D01*
X-166399Y-37500D02*
Y39500D01*
X-162499Y-37500D02*
Y39500D01*
X-150799Y-37500D02*
Y39500D01*
X-137349Y60750D02*
X137650D01*
X-137349Y56850D02*
X137650D01*
X-137349Y64650D02*
X137650D01*
X-137349Y52950D02*
X137650D01*
X-137349Y68550D02*
X137650D01*
X-137349Y72450D02*
X137650D01*
X151100Y-37500D02*
Y1000D01*
X155000Y-37500D02*
Y35600D01*
X158900Y-37500D02*
Y35600D01*
X162800Y-37500D02*
Y35600D01*
X166700Y-37500D02*
Y35600D01*
X174500Y-37500D02*
Y35600D01*
X170600Y-37500D02*
Y35600D01*
X186200Y-37500D02*
Y35600D01*
X190100Y-37500D02*
Y35600D01*
X194000Y-37500D02*
Y35600D01*
X178400Y-37500D02*
Y35600D01*
X182300Y-37500D02*
Y35600D01*
X209600Y-37500D02*
Y35600D01*
X213500Y-37500D02*
Y35600D01*
X197900Y-37500D02*
Y35600D01*
X205700Y-37500D02*
Y35600D01*
X201800Y-37500D02*
Y35600D01*
X-137349Y76350D02*
X137650D01*
X217400Y-37500D02*
Y35600D01*
X221300Y-37500D02*
Y35600D01*
X225200Y-37500D02*
Y35600D01*
X229100Y-37500D02*
Y35600D01*
X233000Y-37500D02*
Y35600D01*
X244700Y-37500D02*
Y35600D01*
X248600Y-37500D02*
Y35600D01*
X236900Y-37500D02*
Y35600D01*
X240800Y-37500D02*
Y35600D01*
X252500Y-37500D02*
Y35600D01*
X256400Y-37500D02*
Y35600D01*
X260300Y-37500D02*
Y35600D01*
X-137349Y-160150D02*
X137650D01*
X-137349Y162150D02*
X280600D01*
X289650Y153100D01*
X297300D01*
D17*
X-132000Y0D02*
D03*
X0D02*
D03*
X131500Y-0D02*
D03*
X0Y-33000D02*
D03*
Y-18000D02*
D03*
Y18000D02*
D03*
Y33000D02*
D03*
X133000Y0D02*
D03*
D18*
X297300Y153100D02*
D03*
X322700D02*
D03*
X297300Y127700D02*
D03*
X322700D02*
D03*
X297300Y102300D02*
D03*
X322700D02*
D03*
X297300Y76900D02*
D03*
X322700D02*
D03*
X297300Y-61900D02*
D03*
X322700D02*
D03*
X297300Y-87300D02*
D03*
X322700D02*
D03*
X297300Y-112700D02*
D03*
X322700D02*
D03*
X297300Y-138100D02*
D03*
X322700D02*
D03*
D19*
X148000Y-22000D02*
D03*
Y-29000D02*
D03*
Y32000D02*
D03*
Y26000D02*
D03*
Y20000D02*
D03*
Y14000D02*
D03*
Y8000D02*
D03*
Y2000D02*
D03*
Y-16000D02*
D03*
Y-10000D02*
D03*
Y-4000D02*
D03*
D20*
X310600Y62500D02*
Y113300D01*
X306600Y64500D02*
Y88900D01*
X308800Y61000D02*
Y62500D01*
X310600D01*
X308800D02*
Y114300D01*
X306600Y115300D02*
X330200D01*
X304800Y88900D02*
Y89900D01*
Y63500D02*
X306600D01*
M02*
