G04*
G04 #@! TF.GenerationSoftware,Altium Limited,Altium Designer,18.1.7 (191)*
G04*
G04 Layer_Color=65535*
%FSLAX44Y44*%
%MOMM*%
G71*
G01*
G75*
%ADD10C,0.1000*%
%ADD11C,0.2000*%
%ADD12C,0.2540*%
%ADD13C,0.2500*%
D10*
X297300Y169100D02*
G03*
X297300Y170100I0J500D01*
G01*
D02*
G03*
X297300Y169100I0J-500D01*
G01*
X322700Y-155100D02*
G03*
X322700Y-154100I0J500D01*
G01*
D02*
G03*
X322700Y-155100I0J-500D01*
G01*
D11*
X334400Y159100D02*
Y163800D01*
X285600D02*
X334400D01*
X285600Y159100D02*
Y163800D01*
X334400Y66300D02*
Y71100D01*
X285600Y66300D02*
X334400D01*
X285600D02*
Y71100D01*
X334400Y135100D02*
Y147100D01*
X285300Y135100D02*
Y147100D01*
X334400Y109100D02*
Y121100D01*
X285600Y109100D02*
Y121100D01*
X334400Y83100D02*
Y95100D01*
X285300Y83100D02*
X285600Y95100D01*
X334400Y-80100D02*
X334700Y-68100D01*
X285600Y-80100D02*
Y-68100D01*
X334400Y-106100D02*
Y-94100D01*
X285600Y-106100D02*
Y-94100D01*
X334700Y-132100D02*
Y-120100D01*
X285600Y-132100D02*
Y-120100D01*
X334400Y-56100D02*
Y-51300D01*
X285600D02*
X334400D01*
X285600Y-56100D02*
Y-51300D01*
X334400Y-148800D02*
Y-144100D01*
X285600Y-148800D02*
X334400D01*
X285600D02*
Y-144100D01*
D12*
X-65151Y108248D02*
X-69317D01*
X-67234D01*
Y97835D01*
X-69317Y95752D01*
X-71399D01*
X-73482Y97835D01*
X-60986Y108248D02*
Y95752D01*
X-52655D01*
X-40159Y106165D02*
X-42242Y108248D01*
X-46407D01*
X-48490Y106165D01*
Y97835D01*
X-46407Y95752D01*
X-42242D01*
X-40159Y97835D01*
X-27663Y108248D02*
X-31829D01*
X-29746D01*
Y97835D01*
X-31829Y95752D01*
X-33911D01*
X-35994Y97835D01*
X-23498Y108248D02*
Y95752D01*
X-15167D01*
X-2671Y106165D02*
X-4754Y108248D01*
X-8919D01*
X-11002Y106165D01*
Y97835D01*
X-8919Y95752D01*
X-4754D01*
X-2671Y97835D01*
X9825Y108248D02*
X5659D01*
X7742D01*
Y97835D01*
X5659Y95752D01*
X3577D01*
X1494Y97835D01*
X13990Y108248D02*
Y95752D01*
X22320D01*
X34817Y106165D02*
X32734Y108248D01*
X28568D01*
X26486Y106165D01*
Y97835D01*
X28568Y95752D01*
X32734D01*
X34817Y97835D01*
X47312Y108248D02*
X43147D01*
X45230D01*
Y97835D01*
X43147Y95752D01*
X41065D01*
X38982Y97835D01*
X51478Y108248D02*
Y95752D01*
X59808D01*
X72304Y106165D02*
X70222Y108248D01*
X66056D01*
X63974Y106165D01*
Y97835D01*
X66056Y95752D01*
X70222D01*
X72304Y97835D01*
D13*
X300361Y-170D02*
X298456Y-2074D01*
X297504Y-4930D01*
Y-8739D01*
X298456Y-11596D01*
X300361Y-13500D01*
X302265D01*
X304170Y-12548D01*
X305122Y-11596D01*
X306074Y-9691D01*
X307978Y-3978D01*
X308930Y-2074D01*
X309883Y-1122D01*
X311787Y-170D01*
X314643D01*
X316548Y-2074D01*
X317500Y-4930D01*
Y-8739D01*
X316548Y-11596D01*
X314643Y-13500D01*
X297504Y16684D02*
Y4306D01*
X317500D01*
Y16684D01*
X307026Y4306D02*
Y11923D01*
X302265Y34299D02*
X300361Y33347D01*
X298456Y31443D01*
X297504Y29538D01*
Y25730D01*
X298456Y23825D01*
X300361Y21921D01*
X302265Y20969D01*
X305122Y20017D01*
X309883D01*
X312739Y20969D01*
X314643Y21921D01*
X316548Y23825D01*
X317500Y25730D01*
Y29538D01*
X316548Y31443D01*
X314643Y33347D01*
X312739Y34299D01*
M02*
