M48
;Layer_Color=9474304
;FILE_FORMAT=4:4
METRIC,LZ
;TYPE=PLATED
T1F00S00C0.3500
T2F00S00C1.0200
;TYPE=NON_PLATED
%
T01
X00148Y-00029
Y-00022
Y-00016
Y-0001
Y-00004
Y00002
Y00008
Y00014
Y0002
Y00026
Y00032
T02
X002973Y-001381
Y-001127
Y-000873
Y-000619
X003227
Y-000873
Y-001127
Y-001381
Y000769
Y001023
Y001277
Y001531
X002973
Y001277
Y001023
Y000769
M30
