G04*
G04 #@! TF.GenerationSoftware,Altium Limited,Altium Designer,18.1.7 (191)*
G04*
G04 Layer_Color=8388736*
%FSLAX44Y44*%
%MOMM*%
G71*
G01*
G75*
%ADD20C,0.0100*%
D20*
X-142500Y-33750D02*
G03*
X-133750Y-42500I8750J-0D01*
G01*
X-135000Y42500D02*
G03*
X-142500Y35000I0J-7500D01*
G01*
X142500Y33750D02*
G03*
X133750Y42500I-8750J0D01*
G01*
Y-42500D02*
G03*
X142500Y-33750I0J8750D01*
G01*
X-272000Y-165000D02*
G03*
X-265000Y-172000I7000J0D01*
G01*
X335000Y-172000D02*
G03*
X340000Y-167000I1J4999D01*
G01*
X340000Y162000D02*
G03*
X330000Y172000I-9999J1D01*
G01*
X-265000Y172000D02*
G03*
X-272000Y165000I-0J-7000D01*
G01*
X-142500Y-33750D02*
G03*
X-133750Y-42500I8750J-0D01*
G01*
X-135000Y42500D02*
G03*
X-142500Y35000I0J-7500D01*
G01*
X142500Y33750D02*
G03*
X133750Y42500I-8750J0D01*
G01*
Y-42500D02*
G03*
X142500Y-33750I0J8750D01*
G01*
X-133750Y-42500D02*
X133750Y-42500D01*
X-142500Y-33750D02*
Y35000D01*
X-135000Y42500D02*
X133750D01*
X142500Y-33750D02*
Y33750D01*
X-265000Y-172000D02*
X335000Y-172000D01*
X340000Y-167000D02*
Y162000D01*
X-265000Y172000D02*
X330000Y172000D01*
X-272000Y-165000D02*
Y165000D01*
X-133750Y-42500D02*
X133750Y-42500D01*
X-142500Y-33750D02*
Y35000D01*
X-135000Y42500D02*
X133750D01*
X142500Y-33750D02*
Y33750D01*
M02*
