M48
;Layer_Color=9474304
;FILE_FORMAT=4:4
METRIC,LZ
;TYPE=PLATED
T1F00S00C0.3500
T2F00S00C1.0200
;TYPE=NON_PLATED
%
T01
X0017Y-00165
X0017Y-00155
X0017Y-00145
X0017Y-00135
X0017Y-00125
X0017Y-00115
X00216Y-00115
X00216Y-00125
X00216Y-00135
X00216Y-00145
X00216Y-00155
X00216Y-00165
X00245Y-00165002
X00245Y-00155
X00245Y-00145
X00245Y-00135
X00245Y-00125
X00245Y-00115
X00235Y-0003
X00225Y-0003
X00215Y-0003
X00205Y-0003
X00195Y-0003
X00185Y-0003
X00175Y-0003
X00165Y-0003
X0016Y-00023
X0017Y-00023
X0018Y-00023
X0019Y-00023
X002Y-00023
X0021Y-00023
X0022Y-00023
X0023Y-00023
X00225Y-00015
X00215Y-00015
X00205Y-00015
X00195Y-00015
X00185Y-00015
X00175Y-00015
X00165Y-00015
X00235Y-00015
X00215Y00115
X00215Y00125
X00215Y00135
X00215Y00145
X00215Y00155
X00215Y00165
X0017Y00165
X0017Y00155
X0017Y00145
X0017Y00135
X0017Y00125
X0017Y00115
X0012Y00115
X0012Y00125
X0012Y00135
X0012Y00145
X0012Y00155
X0012Y00165
X0012Y-0005
X0012Y-0006
X0012Y-0007
X0012Y-0008
X0012Y-0009
X0012Y-001
X0007Y-001
X0007Y-0009
X0007Y-0008
X0007Y-0007
X0007Y-0006
X0007Y-0005
X00025Y-0005
X00025Y-0006
X00025Y-0007
X00025Y-0008
X00025Y-0009
X00025Y-001
X-00025Y-001
X-00025Y-0009
X-00025Y-0008
X-00025Y-0007
X-00025Y-0006
X-00025Y-0005
X-0007Y-0005
X-0007Y-0006
X-0007Y-0007
X-0007Y-0008
X-0007Y-0009
X-0007Y-001
X-0012Y-001
X-0012Y-0009
X-0012Y-0008
X-0012Y-0007
X-0012Y-0006
X-0012Y-0005
T02
X002973Y-001331
X003227Y-001331
X003227Y-001077
X002973Y-001077
X002973Y-000823
X003227Y-000823
X003227Y-000569
X002973Y-000569
X002973Y000769
X002973Y001023
X002973Y001277
X002973Y001531
X003227Y001531
X003227Y001277
X003227Y001023
X003227Y000769
M30
