G04*
G04 #@! TF.GenerationSoftware,Altium Limited,Altium Designer,18.1.7 (191)*
G04*
G04 Layer_Color=65535*
%FSLAX44Y44*%
%MOMM*%
G71*
G01*
G75*
%ADD10C,0.1000*%
%ADD11C,0.2000*%
D10*
X322700Y60900D02*
G03*
X322700Y59900I0J-500D01*
G01*
D02*
G03*
X322700Y60900I0J500D01*
G01*
Y-149100D02*
G03*
X322700Y-150100I0J-500D01*
G01*
D02*
G03*
X322700Y-149100I0J500D01*
G01*
D11*
X285600Y66200D02*
Y70900D01*
Y66200D02*
X334400D01*
Y70900D01*
X285600Y158900D02*
Y163700D01*
X334400D01*
Y158900D02*
Y163700D01*
X285600Y82900D02*
Y94900D01*
X334700Y82900D02*
Y94900D01*
X285600Y108900D02*
Y120900D01*
X334400Y108900D02*
Y120900D01*
X285600Y134900D02*
Y146900D01*
X334400Y134900D02*
X334700Y146900D01*
X285600Y-143800D02*
Y-139100D01*
Y-143800D02*
X334400D01*
Y-139100D01*
X285600Y-51100D02*
Y-46300D01*
X334400D01*
Y-51100D02*
Y-46300D01*
X285600Y-127100D02*
Y-115100D01*
X334700Y-127100D02*
Y-115100D01*
X285600Y-101100D02*
Y-89100D01*
X334400Y-101100D02*
Y-89100D01*
X285600Y-75100D02*
Y-63100D01*
X334400Y-75100D02*
X334700Y-63100D01*
M02*
