G04*
G04 #@! TF.GenerationSoftware,Altium Limited,Altium Designer,18.1.7 (191)*
G04*
G04 Layer_Physical_Order=1*
G04 Layer_Color=255*
%FSLAX44Y44*%
%MOMM*%
G71*
G01*
G75*
%ADD13R,1.6000X1.8000*%
%ADD14R,1.8000X1.6000*%
%ADD19R,2.2900X0.7600*%
%ADD20C,1.5240*%
%ADD21C,0.5000*%
G36*
X330000Y169961D02*
X330000D01*
X330000D01*
X330784Y169961D01*
X332322Y169655D01*
X333771Y169055D01*
X335075Y168184D01*
X336184Y167075D01*
X337055Y165771D01*
X337440Y164840D01*
Y55000D01*
X254000D01*
X254000Y109000D01*
X-209000Y109000D01*
X-209000Y-107700D01*
X248000Y-107700D01*
X248000Y-169961D01*
X-270000Y-169961D01*
X-270000Y169961D01*
X330000Y169961D01*
D02*
G37*
G36*
X251000Y106000D02*
X251000Y-37000D01*
X145964Y-37000D01*
X145164Y-35997D01*
X145183Y-35730D01*
X145608Y-32500D01*
Y32500D01*
X145178Y35763D01*
X143919Y38804D01*
X143799Y38960D01*
X143720Y39079D01*
X143624Y39311D01*
X142666Y40744D01*
X142488Y40921D01*
X142349Y41130D01*
X141130Y42349D01*
X140921Y42488D01*
X140744Y42666D01*
X139311Y43623D01*
X139079Y43720D01*
X138960Y43799D01*
X138804Y43919D01*
X135763Y45178D01*
X132500Y45608D01*
X-132500D01*
X-135763Y45178D01*
X-136194Y45000D01*
X-136236D01*
X-137685Y44712D01*
X-137917Y44616D01*
X-138163Y44567D01*
X-139528Y44001D01*
X-139737Y43862D01*
X-139969Y43766D01*
X-141197Y42945D01*
X-141375Y42768D01*
X-141583Y42628D01*
X-142628Y41583D01*
X-142767Y41375D01*
X-142945Y41197D01*
X-143766Y39969D01*
X-143862Y39737D01*
X-144001Y39528D01*
X-144567Y38163D01*
X-144616Y37917D01*
X-144712Y37685D01*
X-145000Y36236D01*
Y35985D01*
X-145049Y35739D01*
Y33447D01*
X-145108Y33000D01*
X-145049Y32553D01*
Y18447D01*
X-145108Y18000D01*
X-145049Y17553D01*
Y447D01*
X-145108Y0D01*
X-145049Y-447D01*
Y-17553D01*
X-145108Y-18000D01*
X-145049Y-18447D01*
Y-32553D01*
X-145108Y-33000D01*
X-145049Y-33447D01*
X-145049Y-34612D01*
X-145000Y-34858D01*
Y-35109D01*
X-144664Y-36800D01*
X-144568Y-37032D01*
X-144519Y-37278D01*
X-143859Y-38870D01*
X-143720Y-39079D01*
X-143624Y-39311D01*
X-142666Y-40744D01*
X-142488Y-40921D01*
X-142349Y-41130D01*
X-141130Y-42349D01*
X-140921Y-42488D01*
X-140744Y-42666D01*
X-139311Y-43623D01*
X-139079Y-43720D01*
X-138960Y-43799D01*
X-138804Y-43919D01*
X-135763Y-45178D01*
X-132500Y-45608D01*
X132500D01*
X135763Y-45178D01*
X136194Y-45000D01*
X251000D01*
Y-45000D01*
X337961D01*
X337961Y-167000D01*
X337961Y-167000D01*
X337961Y-167000D01*
X337961Y-167589D01*
X337510Y-168677D01*
X336677Y-169510D01*
X335589Y-169961D01*
X335000Y-169961D01*
X335000Y-169961D01*
X335000Y-169961D01*
X251000D01*
Y-105000D01*
X-206122D01*
X-206122Y106000D01*
X251000Y106000D01*
D02*
G37*
D13*
X-86000Y55000D02*
D03*
X-58000D02*
D03*
X-10000Y75000D02*
D03*
X-38000D02*
D03*
X231000Y-120000D02*
D03*
X203000D02*
D03*
X231000Y-140000D02*
D03*
X203000D02*
D03*
X231000Y-160000D02*
D03*
X203000D02*
D03*
X183000Y-55000D02*
D03*
X155000D02*
D03*
X183000Y-75000D02*
D03*
X155000D02*
D03*
X183000Y-95000D02*
D03*
X155000D02*
D03*
X231000Y-55000D02*
D03*
X203000D02*
D03*
X231000Y-75000D02*
D03*
X203000D02*
D03*
X231001Y-95002D02*
D03*
X203001D02*
D03*
X231000Y75000D02*
D03*
X203000D02*
D03*
X231000Y54998D02*
D03*
X203000D02*
D03*
X155000Y55000D02*
D03*
X183000D02*
D03*
X155000Y75000D02*
D03*
X183000D02*
D03*
X155000Y95000D02*
D03*
X183000D02*
D03*
X135000Y-55000D02*
D03*
X107000D02*
D03*
X135000Y-75000D02*
D03*
X107000D02*
D03*
X135000Y-95000D02*
D03*
X107000D02*
D03*
X86000Y-55000D02*
D03*
X58000D02*
D03*
X86000Y-75000D02*
D03*
X58000D02*
D03*
X86000Y-95000D02*
D03*
X58000D02*
D03*
X38000Y-55000D02*
D03*
X10000D02*
D03*
X38000Y-75000D02*
D03*
X10000D02*
D03*
X38001Y-95003D02*
D03*
X10001D02*
D03*
X-10000Y-55000D02*
D03*
X-38000D02*
D03*
X-10000Y-75000D02*
D03*
X-38000D02*
D03*
X-9999Y-95002D02*
D03*
X-37999D02*
D03*
X-58000Y-55000D02*
D03*
X-86000D02*
D03*
X-58000Y-75000D02*
D03*
X-86000D02*
D03*
X-57999Y-95002D02*
D03*
X-85999D02*
D03*
X-106000Y-55000D02*
D03*
X-134000D02*
D03*
X-106000Y-75000D02*
D03*
X-134000D02*
D03*
X-105999Y-95002D02*
D03*
X-133999D02*
D03*
X-106000Y95000D02*
D03*
X-134000D02*
D03*
X-106000Y75000D02*
D03*
X-134000D02*
D03*
X-105999Y54999D02*
D03*
X-133999D02*
D03*
X-58000Y95000D02*
D03*
X-86000D02*
D03*
X-58000Y75000D02*
D03*
X-86000D02*
D03*
X-10000Y95000D02*
D03*
X-38000D02*
D03*
X-10000Y55000D02*
D03*
X-38000D02*
D03*
X38000Y95000D02*
D03*
X10000D02*
D03*
X38000Y75000D02*
D03*
X10000D02*
D03*
X38000Y55000D02*
D03*
X10000D02*
D03*
X86000Y95000D02*
D03*
X58000D02*
D03*
X86000Y75000D02*
D03*
X58000D02*
D03*
X86000Y55000D02*
D03*
X58000D02*
D03*
X135000Y95000D02*
D03*
X107000D02*
D03*
X135000Y75000D02*
D03*
X107000D02*
D03*
X135001Y54998D02*
D03*
X107001D02*
D03*
X183000Y-120000D02*
D03*
X155000D02*
D03*
X183000Y-140000D02*
D03*
X155000D02*
D03*
X183001Y-160001D02*
D03*
X155001D02*
D03*
X135000Y-120000D02*
D03*
X107000D02*
D03*
X135000Y-140000D02*
D03*
X107000D02*
D03*
X135001Y-160002D02*
D03*
X107001D02*
D03*
X86000Y-120000D02*
D03*
X58000D02*
D03*
X86000Y-140000D02*
D03*
X58000D02*
D03*
X86000Y-160000D02*
D03*
X58000D02*
D03*
X38000Y-120000D02*
D03*
X10000D02*
D03*
X38000Y-140000D02*
D03*
X10000D02*
D03*
X38001Y-160002D02*
D03*
X10001D02*
D03*
X-10000Y-120000D02*
D03*
X-38000D02*
D03*
X-10000Y-140000D02*
D03*
X-38000D02*
D03*
X-10000Y-160000D02*
D03*
X-38000D02*
D03*
X-58000Y-120000D02*
D03*
X-86000D02*
D03*
X-58000Y-140000D02*
D03*
X-86000D02*
D03*
X-58000Y-160000D02*
D03*
X-86000D02*
D03*
X-106000Y-120000D02*
D03*
X-134000D02*
D03*
X-106000Y-140000D02*
D03*
X-134000D02*
D03*
X-106000Y-160000D02*
D03*
X-134000D02*
D03*
X-154000Y-120000D02*
D03*
X-182000D02*
D03*
X-154000Y-140000D02*
D03*
X-182000D02*
D03*
X-154000Y-160000D02*
D03*
X-182000D02*
D03*
X-202000Y-120000D02*
D03*
X-230000D02*
D03*
X-202000Y-140000D02*
D03*
X-230000D02*
D03*
X-10000Y120000D02*
D03*
X-38000D02*
D03*
X-154001Y160002D02*
D03*
X-182001D02*
D03*
X-154000Y140000D02*
D03*
X-182000D02*
D03*
X-58000Y120000D02*
D03*
X-86000D02*
D03*
X-202000Y140000D02*
D03*
X-230000D02*
D03*
X38000Y120000D02*
D03*
X10000D02*
D03*
X-106000Y160000D02*
D03*
X-134000D02*
D03*
X-106000Y140000D02*
D03*
X-134000D02*
D03*
X86000Y120000D02*
D03*
X58000D02*
D03*
X-58000Y160000D02*
D03*
X-86000D02*
D03*
X-58000Y140000D02*
D03*
X-86000D02*
D03*
X38000Y160000D02*
D03*
X10000D02*
D03*
X38000Y140000D02*
D03*
X10000D02*
D03*
X183000Y120000D02*
D03*
X155000D02*
D03*
X-10000Y140000D02*
D03*
X-38000D02*
D03*
X135000Y120000D02*
D03*
X107000D02*
D03*
X-10000Y160000D02*
D03*
X-38000D02*
D03*
X86000Y140000D02*
D03*
X58000D02*
D03*
X-106000Y120000D02*
D03*
X-134000D02*
D03*
X135000Y160000D02*
D03*
X107000D02*
D03*
X135000Y140000D02*
D03*
X107000D02*
D03*
X86000Y160000D02*
D03*
X58000D02*
D03*
X231000Y120000D02*
D03*
X203000D02*
D03*
X-154000D02*
D03*
X-182000D02*
D03*
X183000Y160000D02*
D03*
X155000D02*
D03*
X-202000Y120000D02*
D03*
X-230000D02*
D03*
X183000Y140000D02*
D03*
X155000D02*
D03*
X231000Y160002D02*
D03*
X203000D02*
D03*
X231000Y140000D02*
D03*
X203000D02*
D03*
D14*
X196000Y6000D02*
D03*
Y34000D02*
D03*
X176000Y6000D02*
D03*
Y34000D02*
D03*
X156000Y6000D02*
D03*
Y34000D02*
D03*
X-155000Y-96000D02*
D03*
Y-68000D02*
D03*
X-175000Y-96000D02*
D03*
Y-68000D02*
D03*
X-195002Y-96001D02*
D03*
Y-68001D02*
D03*
X-155000Y68000D02*
D03*
Y96000D02*
D03*
X-175000Y68000D02*
D03*
Y96000D02*
D03*
X-195002Y67999D02*
D03*
Y95999D02*
D03*
X-155000Y-41000D02*
D03*
Y-13000D02*
D03*
X-175000Y-41000D02*
D03*
Y-13000D02*
D03*
X-195001Y-41001D02*
D03*
Y-13001D02*
D03*
X-155000Y13000D02*
D03*
Y41000D02*
D03*
X-175000Y13000D02*
D03*
Y41000D02*
D03*
X-195000Y13000D02*
D03*
Y41000D02*
D03*
X216000Y34000D02*
D03*
Y6000D02*
D03*
X-220000Y-41000D02*
D03*
Y-13000D02*
D03*
X-240000Y-41000D02*
D03*
Y-13000D02*
D03*
X-260000Y-41000D02*
D03*
Y-13000D02*
D03*
X-220000Y13000D02*
D03*
Y41000D02*
D03*
X-240000Y13000D02*
D03*
Y41000D02*
D03*
X-260000Y13000D02*
D03*
Y41000D02*
D03*
X-220000Y-96000D02*
D03*
Y-68000D02*
D03*
X-240000Y-96000D02*
D03*
Y-68000D02*
D03*
X-260000Y-96000D02*
D03*
Y-68000D02*
D03*
Y68000D02*
D03*
Y96000D02*
D03*
X-240000Y68000D02*
D03*
Y96000D02*
D03*
X-220000Y68000D02*
D03*
Y96000D02*
D03*
X236000Y34000D02*
D03*
Y6000D02*
D03*
D19*
X297300Y153100D02*
D03*
X322700D02*
D03*
X297300Y127700D02*
D03*
X322700D02*
D03*
X297300Y102300D02*
D03*
X322700D02*
D03*
X297300Y76900D02*
D03*
X322700D02*
D03*
Y-133100D02*
D03*
X297300D02*
D03*
X322700Y-107700D02*
D03*
X297300D02*
D03*
X322700Y-82300D02*
D03*
X297300D02*
D03*
X322700Y-56900D02*
D03*
X297300D02*
D03*
D20*
X133000Y0D02*
D03*
X0Y33000D02*
D03*
Y18000D02*
D03*
Y-18000D02*
D03*
Y-33000D02*
D03*
X131500Y-0D02*
D03*
X0Y0D02*
D03*
X-132000D02*
D03*
D21*
X120000Y115000D02*
D03*
Y125000D02*
D03*
Y135000D02*
D03*
X120000Y165000D02*
D03*
Y155000D02*
D03*
X120000Y145000D02*
D03*
X170000Y115000D02*
D03*
Y125000D02*
D03*
Y135000D02*
D03*
X170000Y165000D02*
D03*
Y155000D02*
D03*
X170000Y145000D02*
D03*
X215000Y115000D02*
D03*
Y125000D02*
D03*
Y135000D02*
D03*
X215000Y165000D02*
D03*
Y155000D02*
D03*
X215000Y145000D02*
D03*
X-120000Y-100000D02*
D03*
Y-90000D02*
D03*
Y-80000D02*
D03*
X-120000Y-50000D02*
D03*
Y-60000D02*
D03*
X-120000Y-70000D02*
D03*
X-70000Y-100000D02*
D03*
Y-90000D02*
D03*
Y-80000D02*
D03*
X-70000Y-50000D02*
D03*
Y-60000D02*
D03*
X-70000Y-70000D02*
D03*
X-25000Y-100000D02*
D03*
Y-90000D02*
D03*
Y-80000D02*
D03*
X-25000Y-50000D02*
D03*
Y-60000D02*
D03*
X-25000Y-70000D02*
D03*
X25000Y-100000D02*
D03*
Y-90000D02*
D03*
Y-80000D02*
D03*
X25000Y-50000D02*
D03*
Y-60000D02*
D03*
X25000Y-70000D02*
D03*
X70000D02*
D03*
X70000Y-60000D02*
D03*
Y-50000D02*
D03*
X70000Y-80000D02*
D03*
Y-90000D02*
D03*
Y-100000D02*
D03*
X120000Y-50000D02*
D03*
Y-60000D02*
D03*
Y-70000D02*
D03*
Y-80000D02*
D03*
Y-90000D02*
D03*
Y-100000D02*
D03*
X216000Y-115000D02*
D03*
X216000Y-125000D02*
D03*
Y-135000D02*
D03*
Y-145000D02*
D03*
Y-155000D02*
D03*
Y-165000D02*
D03*
X170000D02*
D03*
Y-155000D02*
D03*
Y-145000D02*
D03*
Y-135000D02*
D03*
Y-125000D02*
D03*
X235000Y-30000D02*
D03*
X225000D02*
D03*
X215000D02*
D03*
X205000D02*
D03*
X195000D02*
D03*
X185000D02*
D03*
X175000D02*
D03*
X165000D02*
D03*
X245000Y-165002D02*
D03*
Y-155000D02*
D03*
Y-145000D02*
D03*
Y-125000D02*
D03*
Y-115000D02*
D03*
X215000Y-15000D02*
D03*
X205000D02*
D03*
X195000Y-15000D02*
D03*
X185000D02*
D03*
X175000D02*
D03*
X165000Y-15000D02*
D03*
X160000Y-23000D02*
D03*
X170000D02*
D03*
X180000D02*
D03*
X190000D02*
D03*
X200000D02*
D03*
X210000D02*
D03*
X220000D02*
D03*
X230000D02*
D03*
X235000Y-15000D02*
D03*
X225000Y-15000D02*
D03*
X245000Y-135000D02*
D03*
X170000Y-115000D02*
D03*
M02*
