M48
;Layer_Color=9474304
;FILE_FORMAT=4:4
METRIC,LZ
;TYPE=PLATED
T1F00S00C0.3500
T2F00S00C1.0200
;TYPE=NON_PLATED
%
T01
X00244Y-00167
X0025Y-00167
X00256Y-00167
X00262Y-00167
X00268Y-00167
X00268Y-00042
X00262Y-00042
X00256Y-00042
X0025Y-00042
X00244Y-00042
X00227Y-00012
X00224Y-00007
X00218Y-00007
X00212Y-00007
X00206Y-00007
X002Y-00007
X00194Y-00007
X00188Y-00007
X00182Y-00007
X00176Y-00007
X0017Y-00007
X00164Y-00007
X00158Y-00007
X00152Y-00007
X00149Y-00012
X00149Y-00002
X00155Y-00002
X00161Y-00002
X00167Y-00002
X00173Y-00002
X00179Y-00002
X00185Y-00002
X00191Y-00002
X00197Y-00002
X00203Y-00002
X00209Y-00002
X00215Y-00002
X00221Y-00002
X00227Y-00002
X00224Y00003
X00244Y00041
X0025Y00041
X00256Y00041
X00262Y00041
X00268Y00041
X00268Y00166
X00262Y00166
X00256Y00166
X0025Y00166
X00244Y00166
X00152Y00003
T02
X002973Y-001331
X003227Y-001331
X003227Y-001077
X002973Y-001077
X002973Y-000823
X003227Y-000823
X003227Y-000569
X002973Y-000569
X002973Y000769
X003227Y000769
X003227Y001023
X002973Y001023
X002973Y001277
X003227Y001277
X003227Y001531
X002973Y001531
M30
